# xmcd CD database file
#
# Track frame offsets:
#	150
#	15432
#	38202
#	53045
#	69567
#	87475
#	102305
#	117542
#	134142
#	146855
#	163682
#
# Disc length: 2456 seconds
#
# Revision: 3
# Processed by: cddbd v1.5.2PL0 Copyright (c) Steve Scherf et al.
# Submitted via: CDex 1.79
#
DISCID=a209960b
DTITLE=Kris Tyler - What A Woman Knows
DYEAR=1997
DGENRE=Country
TTITLE0=Here's Me
TTITLE1=Keeping Your Kisses
TTITLE2=I'm In Trouble Now
TTITLE3=What A Woman Knows
TTITLE4=Old Boyfriend
TTITLE5=She's Only A Cowboy (When It Rains)
TTITLE6=Rockin' Horse
TTITLE7=Kind Of Like California
TTITLE8=Love Don't Be A Stranger
TTITLE9=A Thousand Tears Ago
TTITLE10=Texas Hotel
EXTD=YEAR: 1997
EXTT0=
EXTT1=
EXTT2=
EXTT3=
EXTT4=
EXTT5=
EXTT6=
EXTT7=
EXTT8=
EXTT9=
EXTT10=
PLAYORDER=
